<svg width="16" height="16" viewBox="0 0 16 16" fill="none" xmlns="http://www.w3.org/2000/svg">
<path d="M14.4518 7.75177V3.28504C14.4518 2.82459 14.2686 2.38258 13.9429 2.05688C13.6172 1.73118 13.1752 1.54797 12.7148 1.54797H8.24805V3.03689H12.7148C12.7807 3.03689 12.8437 3.06306 12.8902 3.10959C12.9368 3.15612 12.9629 3.21912 12.9629 3.28504V7.75177H14.4518Z" fill="white"/>
<path d="M10.5407 14.511L10.5407 15.9999L15.2555 15.9999C15.6665 15.9999 16 15.6664 16 15.2554L16 10.5405L14.5111 10.5405L14.5111 13.4593L11.037 9.98517L9.98522 11.0369L13.4593 14.511L10.5407 14.511Z" fill="white"/>
<path d="M1.54883 8.24817V12.7149C1.54883 13.6746 2.32624 14.452 3.28589 14.452H7.75263V12.9631H3.28589C3.14922 12.9631 3.03774 12.8516 3.03774 12.7149V8.24817H1.54883Z" fill="white"/>
<path d="M5.46019 1.48897L5.46019 6.09866e-05L0.745299 6.05744e-05C0.33431 6.05385e-05 0.000842591 0.333527 0.000842555 0.744517L0.000842143 5.45941L1.48975 5.45941L1.48975 2.54064L4.96388 6.01477L6.01563 4.96303L2.5415 1.4889L5.46019 1.48897Z" fill="white"/>
</svg>
