<svg width="23" height="24" viewBox="0 0 23 24" fill="none" xmlns="http://www.w3.org/2000/svg">
<path d="M20.149 13.453C20.2307 12.9729 20.2736 12.487 20.277 12C20.2736 11.513 20.2307 11.0271 20.149 10.547L22.249 8.518C22.4091 8.36305 22.5129 8.15906 22.5439 7.9384C22.5749 7.71774 22.5313 7.49305 22.42 7.3L20.92 4.7C20.8072 4.50766 20.6338 4.35811 20.427 4.27471C20.2203 4.1913 19.9917 4.17875 19.777 4.239L16.977 5.039C16.2189 4.42153 15.3654 3.93146 14.45 3.588L13.747 0.758C13.693 0.541568 13.5682 0.349398 13.3924 0.212049C13.2167 0.0747014 13 6.1623e-05 12.777 0H9.77698C9.55392 6.1623e-05 9.33728 0.0747014 9.16152 0.212049C8.98576 0.349398 8.86096 0.541568 8.80698 0.758L8.09998 3.588C7.18596 3.93185 6.33386 4.4219 5.57698 5.039L2.77698 4.239C2.5623 4.17892 2.33377 4.19156 2.12702 4.27495C1.92027 4.35834 1.74691 4.50779 1.63398 4.7L0.133982 7.3C0.0224599 7.49316 -0.0212866 7.71805 0.00969776 7.93893C0.0406821 8.1598 0.144619 8.36398 0.304982 8.519L2.40498 10.548C2.32327 11.0278 2.28046 11.5133 2.27698 12C2.28041 12.487 2.32322 12.9729 2.40498 13.453L0.304982 15.482C0.144853 15.6369 0.0410631 15.8409 0.0100837 16.0616C-0.0208957 16.2823 0.0227105 16.5069 0.133982 16.7L1.63398 19.3C1.72183 19.4522 1.84822 19.5785 2.00043 19.6663C2.15263 19.754 2.32528 19.8002 2.50098 19.8C2.59393 19.7996 2.68641 19.7868 2.77598 19.762L5.57598 18.962C6.33408 19.5795 7.18755 20.0695 8.10298 20.413L8.80998 23.243C8.86403 23.4587 8.98846 23.6503 9.16359 23.7874C9.33873 23.9245 9.55457 23.9993 9.77698 24H12.777C13 23.9999 13.2167 23.9253 13.3924 23.788C13.5682 23.6506 13.693 23.4584 13.747 23.242L14.454 20.412C15.368 20.0681 16.2201 19.5781 16.977 18.961L19.777 19.761C19.8666 19.7858 19.959 19.7986 20.052 19.799C20.2277 19.7992 20.4003 19.753 20.5525 19.6653C20.7047 19.5775 20.8311 19.4512 20.919 19.299L22.419 16.699C22.5305 16.5058 22.5743 16.2809 22.5433 16.0601C22.5123 15.8392 22.4083 15.635 22.248 15.48L20.149 13.453ZM11.277 16C10.4859 16 9.7125 15.7654 9.0547 15.3259C8.3969 14.8864 7.88421 14.2616 7.58146 13.5307C7.27871 12.7998 7.1995 11.9956 7.35384 11.2196C7.50818 10.4437 7.88914 9.73098 8.44855 9.17157C9.00797 8.61216 9.7207 8.2312 10.4966 8.07686C11.2725 7.92252 12.0768 8.00173 12.8077 8.30448C13.5386 8.60723 14.1633 9.11992 14.6029 9.77772C15.0424 10.4355 15.277 11.2089 15.277 12C15.277 13.0609 14.8556 14.0783 14.1054 14.8284C13.3553 15.5786 12.3378 16 11.277 16Z" fill="white"/>
</svg>
