<svg width="4" height="8" viewBox="0 0 4 8" fill="none" xmlns="http://www.w3.org/2000/svg">
<path d="M3.75095 0.665011C3.74884 0.648717 3.74353 0.632999 3.73534 0.618757C3.72714 0.604515 3.71622 0.592028 3.7032 0.582011L3.10745 0.124761C3.08117 0.104654 3.048 0.0957845 3.0152 0.100096C2.98239 0.104407 2.95264 0.121548 2.93245 0.147761L0.02595 3.92476C0.00912393 3.94662 0 3.97343 0 4.00101C0 4.02859 0.00912393 4.0554 0.02595 4.07726L2.9312 7.85226C2.95139 7.87847 2.98114 7.89562 3.01395 7.89993C3.04675 7.90424 3.07992 7.89537 3.1062 7.87526L3.70095 7.41751C3.72716 7.39732 3.7443 7.36757 3.74861 7.33476C3.75293 7.30196 3.74406 7.26879 3.72395 7.24251L1.2307 3.99976L3.72595 0.757261C3.74617 0.731037 3.75517 0.697859 3.75095 0.665011Z" fill="white"/>
</svg>
