<svg width="12" height="13" viewBox="0 0 12 13" fill="none" xmlns="http://www.w3.org/2000/svg">
<g clip-path="url(#clip0_355_918)">
<path d="M11 0.5C10.7348 0.5 10.4804 0.605357 10.2929 0.792893C10.1054 0.98043 10 1.23478 10 1.5V11.5C10 11.7652 10.1054 12.0196 10.2929 12.2071C10.4804 12.3946 10.7348 12.5 11 12.5C11.2652 12.5 11.5196 12.3946 11.7071 12.2071C11.8946 12.0196 12 11.7652 12 11.5V1.5C12 1.23478 11.8946 0.98043 11.7071 0.792893C11.5196 0.605357 11.2652 0.5 11 0.5Z" fill="#212121"/>
<path d="M0.5 7.50001H3V10C3.0001 10.096 3.02782 10.1899 3.07986 10.2706C3.1319 10.3512 3.20606 10.4152 3.29347 10.4549C3.38089 10.4945 3.47787 10.5082 3.57283 10.4942C3.66779 10.4802 3.75672 10.4392 3.829 10.376L7.829 6.87601C7.88254 6.82908 7.92544 6.77126 7.95483 6.70642C7.98422 6.64158 7.99942 6.5712 7.99942 6.50001C7.99942 6.42882 7.98422 6.35845 7.95483 6.2936C7.92544 6.22876 7.88254 6.17094 7.829 6.12401L3.829 2.62401C3.75672 2.56085 3.66779 2.51983 3.57283 2.50585C3.47787 2.49187 3.38089 2.50552 3.29347 2.54517C3.20606 2.58481 3.1319 2.64879 3.07986 2.72944C3.02782 2.8101 3.0001 2.90402 3 3.00001V5.50001H0.5C0.367392 5.50001 0.240215 5.55269 0.146447 5.64646C0.0526784 5.74023 0 5.8674 0 6.00001L0 7.00001C0 7.13262 0.0526784 7.2598 0.146447 7.35356C0.240215 7.44733 0.367392 7.50001 0.5 7.50001Z" fill="#212121"/>
</g>
<defs>
<clipPath id="clip0_355_918">
<rect width="12" height="12" fill="white" transform="translate(0 0.5)"/>
</clipPath>
</defs>
</svg>
