<svg width="12" height="13" viewBox="0 0 12 13" fill="none" xmlns="http://www.w3.org/2000/svg">
<g clip-path="url(#clip0_355_898)">
<path d="M1 12.5C1.26522 12.5 1.51957 12.3946 1.70711 12.2071C1.89464 12.0196 2 11.7652 2 11.5V1.5C2 1.23478 1.89464 0.98043 1.70711 0.792893C1.51957 0.605357 1.26522 0.5 1 0.5C0.734784 0.5 0.48043 0.605357 0.292893 0.792893C0.105357 0.98043 0 1.23478 0 1.5L0 11.5C0 11.7652 0.105357 12.0196 0.292893 12.2071C0.48043 12.3946 0.734784 12.5 1 12.5Z" fill="#212121"/>
<path d="M11.4999 5.5H8.99991V3C8.99981 2.90401 8.97208 2.81008 8.92004 2.72943C8.86801 2.64877 8.79385 2.5848 8.70644 2.54515C8.61902 2.5055 8.52204 2.49186 8.42708 2.50584C8.33212 2.51982 8.24319 2.56084 8.17091 2.624L4.17091 6.124C4.11737 6.17092 4.07447 6.22874 4.04508 6.29359C4.01569 6.35843 4.00049 6.4288 4.00049 6.5C4.00049 6.57119 4.01569 6.64156 4.04508 6.7064C4.07447 6.77125 4.11737 6.82907 4.17091 6.876L8.17091 10.376C8.26194 10.4558 8.37884 10.4999 8.49991 10.5C8.63251 10.5 8.75969 10.4473 8.85346 10.3535C8.94723 10.2598 8.99991 10.1326 8.99991 10V7.5H11.4999C11.6325 7.5 11.7597 7.44732 11.8535 7.35355C11.9472 7.25978 11.9999 7.1326 11.9999 7V6C11.9999 5.86739 11.9472 5.74021 11.8535 5.64644C11.7597 5.55267 11.6325 5.5 11.4999 5.5Z" fill="#212121"/>
</g>
<defs>
<clipPath id="clip0_355_898">
<rect width="12" height="12" fill="white" transform="translate(0 0.5)"/>
</clipPath>
</defs>
</svg>
