<svg width="13" height="16" viewBox="0 0 13 16" fill="none" xmlns="http://www.w3.org/2000/svg">
<path d="M12.0209 7.68305L0.592377 0.0640566C0.535006 0.0257792 0.468319 0.00379481 0.399432 0.000448701C0.330545 -0.00289741 0.262042 0.0125203 0.201231 0.0450571C0.14042 0.0775939 0.0895825 0.126029 0.0541425 0.185195C0.0187026 0.244361 -1.03175e-05 0.312039 4.26773e-09 0.381007V15.619C-1.03175e-05 15.688 0.0187026 15.7556 0.0541425 15.8148C0.0895825 15.874 0.14042 15.9224 0.201231 15.9549C0.262042 15.9875 0.330545 16.0029 0.399432 15.9996C0.468319 15.9962 0.535006 15.9742 0.592377 15.9359L12.0209 8.31695C12.073 8.28216 12.1158 8.23503 12.1454 8.17974C12.175 8.12445 12.1905 8.06271 12.1905 8C12.1905 7.93729 12.175 7.87555 12.1454 7.82026C12.1158 7.76497 12.073 7.71784 12.0209 7.68305Z" fill="#202A2F"/>
</svg>
