<svg width="22" height="22" viewBox="0 0 22 22" fill="none" xmlns="http://www.w3.org/2000/svg">
<g clip-path="url(#clip0_975_6097)">
<path d="M12.832 3.66675H21.082" stroke="#C1C7CD" stroke-width="2" stroke-miterlimit="10" stroke-linecap="square"/>
<path d="M0.916016 3.66675H3.66602" stroke="#C1C7CD" stroke-width="2" stroke-miterlimit="10" stroke-linecap="square"/>
<path d="M20.166 11H21.0827" stroke="#C1C7CD" stroke-width="2" stroke-miterlimit="10" stroke-linecap="square"/>
<path d="M0.916016 11H10.9993" stroke="#C1C7CD" stroke-width="2" stroke-miterlimit="10" stroke-linecap="square"/>
<path d="M12.832 18.3335H21.082" stroke="#C1C7CD" stroke-width="2" stroke-miterlimit="10" stroke-linecap="square"/>
<path d="M0.916016 18.3335H3.66602" stroke="#C1C7CD" stroke-width="2" stroke-miterlimit="10" stroke-linecap="square"/>
<path d="M6.41602 6.41675C7.9348 6.41675 9.16602 5.18553 9.16602 3.66675C9.16602 2.14796 7.9348 0.916748 6.41602 0.916748C4.89723 0.916748 3.66602 2.14796 3.66602 3.66675C3.66602 5.18553 4.89723 6.41675 6.41602 6.41675Z" stroke="#C1C7CD" stroke-width="2" stroke-miterlimit="10" stroke-linecap="square"/>
<path d="M13.75 13.75C15.2688 13.75 16.5 12.5188 16.5 11C16.5 9.48122 15.2688 8.25 13.75 8.25C12.2312 8.25 11 9.48122 11 11C11 12.5188 12.2312 13.75 13.75 13.75Z" stroke="#C1C7CD" stroke-width="2" stroke-miterlimit="10" stroke-linecap="square"/>
<path d="M6.41602 21.0835C7.9348 21.0835 9.16602 19.8523 9.16602 18.3335C9.16602 16.8147 7.9348 15.5835 6.41602 15.5835C4.89723 15.5835 3.66602 16.8147 3.66602 18.3335C3.66602 19.8523 4.89723 21.0835 6.41602 21.0835Z" stroke="#C1C7CD" stroke-width="2" stroke-miterlimit="10" stroke-linecap="square"/>
</g>
<defs>
<clipPath id="clip0_975_6097">
<rect width="22" height="22" fill="white"/>
</clipPath>
</defs>
</svg>
