<svg width="5" height="8" viewBox="0 0 5 8" fill="none" xmlns="http://www.w3.org/2000/svg">
<path d="M0.752957 0.665011C0.75507 0.648717 0.760375 0.632999 0.768569 0.618757C0.776762 0.604515 0.787683 0.592028 0.800707 0.582011L1.39646 0.124761C1.42273 0.104654 1.45591 0.0957845 1.48871 0.100096C1.52151 0.104407 1.55127 0.121548 1.57146 0.147761L4.47796 3.92476C4.49478 3.94662 4.50391 3.97343 4.50391 4.00101C4.50391 4.02859 4.49478 4.0554 4.47796 4.07726L1.57271 7.85226C1.55252 7.87847 1.52276 7.89562 1.48996 7.89993C1.45716 7.90424 1.42398 7.89537 1.39771 7.87526L0.802957 7.41751C0.776744 7.39732 0.759603 7.36757 0.755292 7.33476C0.75098 7.30196 0.75985 7.26879 0.779957 7.24251L3.27321 3.99976L0.777957 0.757261C0.757732 0.731037 0.748741 0.697859 0.752957 0.665011Z" fill="white"/>
</svg>
