<svg width="12" height="13" viewBox="0 0 12 13" fill="none" xmlns="http://www.w3.org/2000/svg">
<g clip-path="url(#clip0_355_939)">
<path d="M11.2501 4.5C11.1516 4.50024 11.054 4.48092 10.963 4.44315C10.872 4.40539 10.7895 4.34993 10.7201 4.28L8.22009 1.78C8.08761 1.63782 8.01549 1.44978 8.01892 1.25548C8.02234 1.06118 8.10106 0.87579 8.23847 0.738377C8.37588 0.600964 8.56127 0.522252 8.75557 0.518824C8.94987 0.515396 9.13792 0.587519 9.28009 0.719999L11.7801 3.22C11.8848 3.32489 11.9562 3.45846 11.9851 3.60386C12.0139 3.74926 11.9991 3.89996 11.9424 4.03692C11.8857 4.17389 11.7896 4.29097 11.6664 4.37339C11.5432 4.45581 11.3983 4.49987 11.2501 4.5Z" fill="#212121"/>
<path d="M5 2.5C4.0111 2.5 3.0444 2.79324 2.22215 3.34265C1.39991 3.89206 0.759043 4.67295 0.380605 5.58658C0.00216642 6.50021 -0.0968503 7.50555 0.0960759 8.47545C0.289002 9.44536 0.765206 10.3363 1.46447 11.0355C2.16373 11.7348 3.05465 12.211 4.02455 12.4039C4.99446 12.5969 5.99979 12.4978 6.91342 12.1194C7.82705 11.741 8.60794 11.1001 9.15735 10.2779C9.70676 9.45561 10 8.48891 10 7.5C9.99841 6.17441 9.47112 4.90356 8.53378 3.96622C7.59644 3.02888 6.3256 2.50159 5 2.5ZM7.5 8H5C4.86739 8 4.74022 7.94732 4.64645 7.85355C4.55268 7.75979 4.5 7.63261 4.5 7.5V5C4.5 4.86739 4.55268 4.74021 4.64645 4.64645C4.74022 4.55268 4.86739 4.5 5 4.5C5.13261 4.5 5.25979 4.55268 5.35356 4.64645C5.44732 4.74021 5.5 4.86739 5.5 5V7H7.5C7.63261 7 7.75979 7.05268 7.85356 7.14645C7.94732 7.24021 8 7.36739 8 7.5C8 7.63261 7.94732 7.75979 7.85356 7.85355C7.75979 7.94732 7.63261 8 7.5 8Z" fill="#212121"/>
</g>
<defs>
<clipPath id="clip0_355_939">
<rect width="12" height="12" fill="white" transform="translate(0 0.5)"/>
</clipPath>
</defs>
</svg>
