<svg width="16" height="14" viewBox="0 0 16 14" fill="none" xmlns="http://www.w3.org/2000/svg">
<path d="M15 2H11C10.4 2 10 2.4 10 3C10 3.6 10.4 4 11 4H15C15.6 4 16 3.6 16 3C16 2.4 15.6 2 15 2Z" fill="#333333"/>
<path d="M5 0C3.7 0 2.6 0.9 2.2 2C2.1 2 2.1 2 2 2H1C0.4 2 0 2.4 0 3C0 3.6 0.4 4 1 4H2C2.1 4 2.1 4 2.2 4C2.6 5.1 3.7 6 5 6C6.7 6 8 4.7 8 3C8 1.3 6.7 0 5 0Z" fill="#333333"/>
<path d="M1 12H5C5.6 12 6 11.6 6 11C6 10.4 5.6 10 5 10H1C0.4 10 0 10.4 0 11C0 11.6 0.4 12 1 12Z" fill="#333333"/>
<path d="M15 10H14C13.9 10 13.9 10 13.8 10C13.4 8.8 12.3 8 11 8C9.3 8 8 9.3 8 11C8 12.7 9.3 14 11 14C12.3 14 13.4 13.1 13.8 12C13.9 12 13.9 12 14 12H15C15.6 12 16 11.6 16 11C16 10.4 15.6 10 15 10Z" fill="#333333"/>
</svg>
